<?xml version="1.0" encoding="UTF-8" standalone="no"?> <svg xmlns="http://www.w3.org/2000/svg" viewBox="0 0 32 32"><title>Idea</title><g id="Idea"><path d="M16,7a9.047,9.047,0,0,0-.966.053A8.5,8.5,0,0,0,10.646,22.1,3.457,3.457,0,0,1,12,24.744V25h3V20H14a1,1,0,0,1,0-2h4a1,1,0,0,1,0,2H17v5h3v-.173a3.276,3.276,0,0,1,1.193-2.6A8.5,8.5,0,0,0,16,7Z"/><path d="M15,30a3,3,0,0,1-3-3h8a3,3,0,0,1-3,3Z"/><path d="M16,6a1,1,0,0,0,1-1V3a1,1,0,0,0-2,0V5A1,1,0,0,0,16,6Z"/><path d="M28.5,14.5h-2a1,1,0,0,0,0,2h2a1,1,0,0,0,0-2Z"/><path d="M5.5,14.5h-2a1,1,0,0,0,0,2h2a1,1,0,0,0,0-2Z"/><path d="M23.425,9.075a.993.993,0,0,0,.707-.293l1.414-1.414a1,1,0,0,0-1.414-1.414L22.718,7.368a1,1,0,0,0,.707,1.707Z"/><path d="M7.868,8.782A1,1,0,0,0,9.282,7.368L7.868,5.954A1,1,0,1,0,6.454,7.368Z"/></g></svg>